<svg width="730" height="727" viewBox="0 0 730 727" fill="none" xmlns="http://www.w3.org/2000/svg">
<path d="M435.892 654.88C595.043 616.114 693.697 458.017 659.921 298.913C673.958 376.98 624.902 453.325 546.951 472.312C465.902 492.054 384.147 442.445 364.371 361.256C344.632 280.219 262.843 230.47 181.806 250.208C103.856 269.196 54.83 345.669 68.8699 423.748C69.4326 426.719 70.0071 429.687 70.7588 432.773C71.5106 435.86 72.2594 438.934 73.2693 441.809C116.444 598.623 276.752 693.643 435.892 654.88V654.88Z" fill="url(#paint0_linear_32_2)"/>
<path d="M175.851 415.775C182.172 441.723 208.33 457.635 234.279 451.314C260.227 444.994 276.138 418.835 269.818 392.887C263.497 366.939 237.338 351.028 211.39 357.348C185.442 363.669 169.531 389.827 175.851 415.775Z" fill="url(#paint1_linear_32_2)"/>
<path d="M294.022 71.5185C134.871 110.284 35.2238 257.397 68.9996 416.501C54.9626 338.434 105.012 273.073 182.963 254.086C264.011 234.345 345.766 283.954 365.542 365.143C385.281 446.18 467.07 495.929 548.107 476.19C626.058 457.203 675.084 380.729 661.044 302.651C660.481 299.68 659.907 296.711 659.155 293.625C658.403 290.539 657.654 287.464 656.644 284.59C613.47 127.775 453.161 32.7556 294.022 71.5185Z" fill="url(#paint2_linear_32_2)"/>
<path d="M561.998 348.244C555.677 322.296 529.519 306.384 503.571 312.705C477.623 319.025 461.711 345.184 468.032 371.132C474.352 397.08 500.511 412.992 526.459 406.671C552.407 400.351 568.318 374.192 561.998 348.244Z" fill="url(#paint3_linear_32_2)"/>
<defs>
<linearGradient id="paint0_linear_32_2" x1="88.6397" y1="506.182" x2="609.965" y2="506.182" gradientUnits="userSpaceOnUse">
<stop stop-color="#D7E5FF"/>
<stop offset="0.458333" stop-color="#D6E4FF"/>
<stop offset="1" stop-color="#B2B4EA"/>
</linearGradient>
<linearGradient id="paint1_linear_32_2" x1="243.466" y1="415.775" x2="175.851" y2="415.775" gradientUnits="userSpaceOnUse">
<stop stop-color="#6496FA"/>
<stop offset="1" stop-color="#82ABFF"/>
</linearGradient>
<linearGradient id="paint2_linear_32_2" x1="501.999" y1="363.183" x2="54.3291" y2="363.183" gradientUnits="userSpaceOnUse">
<stop stop-color="#5077C7"/>
<stop offset="1" stop-color="#6496FA"/>
</linearGradient>
<linearGradient id="paint3_linear_32_2" x1="468.032" y1="371.132" x2="589.499" y2="371.132" gradientUnits="userSpaceOnUse">
<stop stop-color="#BFE0FF"/>
<stop offset="0.386131" stop-color="#BBD1F8"/>
<stop offset="1" stop-color="#B2B4EA"/>
</linearGradient>
</defs>
</svg>
