<svg width="545" height="359" viewBox="0 0 545 359" fill="none" xmlns="http://www.w3.org/2000/svg">
<rect x="432.818" y="227.082" width="61.2573" height="103.435" rx="14.0591" fill="url(#paint0_linear_35_26)"/>
<path d="M446.877 240.136L457.924 251.183L446.877 262.229L457.924 273.276L446.877 284.322L457.924 295.368L446.877 306.415L457.924 317.461L446.877 328.508L447.309 328.939" stroke="#454545" stroke-width="3.01266" stroke-linecap="round" stroke-linejoin="round"/>
<path d="M481.021 328.939L480.589 328.508L491.635 317.461L480.589 306.415L491.635 295.368L480.589 284.322L491.635 273.276L480.589 262.229L491.635 251.183L480.589 240.136L488.555 232.171" stroke="#454545" stroke-width="3.01266" stroke-linecap="round" stroke-linejoin="round"/>
<path d="M435.517 240.136L446.563 251.183L435.517 262.229L446.563 273.276L435.517 284.322L446.563 295.368L435.517 306.415L446.563 317.461L438.4 325.625" stroke="#454545" stroke-width="3.01266" stroke-linecap="round" stroke-linejoin="round"/>
<path d="M458.053 240.136L469.1 251.183L458.053 262.229L469.1 273.276L458.053 284.322L469.1 295.368L458.053 306.415L469.1 317.461L458.053 328.508L458.485 328.939" stroke="#454545" stroke-width="3.01266" stroke-linecap="round" stroke-linejoin="round"/>
<path d="M469.229 240.136L480.275 251.183L469.229 262.229L480.275 273.276L469.229 284.322L480.275 295.368L469.229 306.415L480.275 317.461L469.229 328.508L469.66 328.939" stroke="#454545" stroke-width="3.01266" stroke-linecap="round" stroke-linejoin="round"/>
<rect x="55.0298" y="227.082" width="61.2573" height="103.435" rx="14.0591" fill="url(#paint1_linear_35_26)"/>
<path d="M69.0889 240.136L80.1353 251.183L69.0889 262.229L80.1353 273.275L69.0889 284.322L80.1353 295.368L69.0889 306.415L80.1353 317.461L69.0889 328.507L69.5205 328.939" stroke="#454545" stroke-width="3.01266" stroke-linecap="round" stroke-linejoin="round"/>
<path d="M103.231 328.939L102.8 328.508L113.846 317.461L102.8 306.415L113.846 295.368L102.8 284.322L113.846 273.276L102.8 262.229L113.846 251.183L102.8 240.136L110.766 232.171" stroke="#454545" stroke-width="3.01266" stroke-linecap="round" stroke-linejoin="round"/>
<path d="M57.728 240.136L68.7744 251.183L57.728 262.229L68.7744 273.275L57.728 284.322L68.7744 295.368L57.728 306.415L68.7744 317.461L60.6105 325.625" stroke="#454545" stroke-width="3.01266" stroke-linecap="round" stroke-linejoin="round"/>
<path d="M80.2642 240.136L91.3106 251.183L80.2642 262.229L91.3106 273.275L80.2642 284.322L91.3106 295.368L80.2642 306.415L91.3106 317.461L80.2642 328.507L80.6958 328.939" stroke="#454545" stroke-width="3.01266" stroke-linecap="round" stroke-linejoin="round"/>
<path d="M91.4395 240.136L102.486 251.183L91.4395 262.229L102.486 273.275L91.4395 284.322L102.486 295.368L91.4395 306.415L102.486 317.461L91.4395 328.507L91.8711 328.939" stroke="#454545" stroke-width="3.01266" stroke-linecap="round" stroke-linejoin="round"/>
<g filter="url(#filter0_f_35_26)">
<path d="M490.547 228.764C496.491 237.618 490.154 252.214 471.417 254.968C452.525 264.12 423.738 255.385 431.003 235.739C431.003 224.306 462.926 219.169 474.359 219.169C485.792 219.169 490.547 217.331 490.547 228.764Z" fill="black" fill-opacity="0.41"/>
</g>
<g filter="url(#filter1_f_35_26)">
<path d="M118.8 294.492C125.042 315.838 94.5982 309.212 91.4537 307.115C88.3092 305.019 48.6743 278.541 65.7981 266.477C72.2805 257.06 101.489 270.927 110.907 277.41C120.325 283.892 125.283 285.074 118.8 294.492Z" fill="black" fill-opacity="0.41"/>
</g>
<path d="M212.479 321.519C295.889 301.202 347.592 218.345 329.891 134.961C337.247 175.875 311.537 215.886 270.684 225.837C228.208 236.183 185.361 210.184 174.996 167.634C164.651 125.163 121.787 99.0904 79.3162 109.435C38.4632 119.386 12.7695 159.465 20.1276 200.385C20.4225 201.942 20.7236 203.498 21.1176 205.115C21.5116 206.733 21.904 208.344 22.4333 209.851C45.0607 292.035 129.076 341.834 212.479 321.519V321.519Z" fill="url(#paint2_linear_35_26)"/>
<path d="M76.1954 196.207C79.5079 209.806 93.2174 218.145 106.816 214.832C120.416 211.52 128.754 197.811 125.442 184.211C122.13 170.612 108.42 162.273 94.821 165.586C81.222 168.898 72.883 182.608 76.1954 196.207Z" fill="url(#paint3_linear_35_26)"/>
<path d="M332.284 37.4818C248.875 57.7984 196.651 134.899 214.353 218.283C206.996 177.369 233.226 143.114 274.079 133.163C316.556 122.817 359.403 148.817 369.767 191.367C380.112 233.837 422.977 259.91 465.447 249.565C506.3 239.614 531.994 199.535 524.636 158.615C524.341 157.058 524.04 155.503 523.646 153.885C523.252 152.268 522.859 150.656 522.33 149.15C499.703 66.9654 415.687 17.1666 332.284 37.4818Z" fill="url(#paint4_linear_35_26)"/>
<path d="M472.727 182.51C469.415 168.911 455.705 160.572 442.106 163.885C428.507 167.197 420.168 180.907 423.481 194.506C426.793 208.105 440.503 216.444 454.102 213.131C467.701 209.819 476.04 196.109 472.727 182.51Z" fill="url(#paint5_linear_35_26)"/>
<defs>
<filter id="filter0_f_35_26" x="424.612" y="213.819" width="73.3319" height="50.0284" filterUnits="userSpaceOnUse" color-interpolation-filters="sRGB">
<feFlood flood-opacity="0" result="BackgroundImageFix"/>
<feBlend mode="normal" in="SourceGraphic" in2="BackgroundImageFix" result="shape"/>
<feGaussianBlur stdDeviation="2.62044" result="effect1_foregroundBlur_35_26"/>
</filter>
<filter id="filter1_f_35_26" x="56.2821" y="258.056" width="70.6976" height="56.9337" filterUnits="userSpaceOnUse" color-interpolation-filters="sRGB">
<feFlood flood-opacity="0" result="BackgroundImageFix"/>
<feBlend mode="normal" in="SourceGraphic" in2="BackgroundImageFix" result="shape"/>
<feGaussianBlur stdDeviation="2.62044" result="effect1_foregroundBlur_35_26"/>
</filter>
<linearGradient id="paint0_linear_35_26" x1="463.447" y1="298.73" x2="463.447" y2="330.516" gradientUnits="userSpaceOnUse">
<stop stop-color="#333333"/>
<stop offset="1" stop-color="#4A4A4A"/>
</linearGradient>
<linearGradient id="paint1_linear_35_26" x1="85.6585" y1="298.992" x2="85.6585" y2="330.516" gradientUnits="userSpaceOnUse">
<stop stop-color="#333333"/>
<stop offset="1" stop-color="#4A4A4A"/>
</linearGradient>
<linearGradient id="paint2_linear_35_26" x1="30.4887" y1="243.588" x2="303.709" y2="243.588" gradientUnits="userSpaceOnUse">
<stop stop-color="#D7E5FF"/>
<stop offset="0.458333" stop-color="#D6E4FF"/>
<stop offset="1" stop-color="#B2B4EA"/>
</linearGradient>
<linearGradient id="paint3_linear_35_26" x1="111.631" y1="196.207" x2="76.1954" y2="196.207" gradientUnits="userSpaceOnUse">
<stop stop-color="#6496FA"/>
<stop offset="1" stop-color="#82ABFF"/>
</linearGradient>
<linearGradient id="paint4_linear_35_26" x1="441.282" y1="190.34" x2="206.664" y2="190.34" gradientUnits="userSpaceOnUse">
<stop stop-color="#5077C7"/>
<stop offset="1" stop-color="#6496FA"/>
</linearGradient>
<linearGradient id="paint5_linear_35_26" x1="423.481" y1="194.506" x2="487.141" y2="194.506" gradientUnits="userSpaceOnUse">
<stop stop-color="#BFE0FF"/>
<stop offset="0.386131" stop-color="#BBD1F8"/>
<stop offset="1" stop-color="#B2B4EA"/>
</linearGradient>
</defs>
</svg>
