<svg width="1040" height="685" viewBox="0 0 1040 685" fill="none" xmlns="http://www.w3.org/2000/svg">
<path d="M405.426 613.482C564.578 574.717 663.232 416.619 629.456 257.516C643.493 335.582 594.436 411.927 516.486 430.914C435.437 450.656 353.682 401.047 333.906 319.858C314.167 238.821 232.378 189.072 151.341 208.811C73.3903 227.798 24.3647 304.272 38.4046 382.35C38.9673 385.321 39.5418 388.29 40.2935 391.376C41.0452 394.462 41.7941 397.537 42.8039 400.411C85.9787 557.225 246.287 652.245 405.426 613.482V613.482Z" fill="url(#paint0_linear_32_2)"/>
<path d="M145.386 374.378C151.706 400.326 177.865 416.237 203.813 409.917C229.761 403.596 245.673 377.438 239.352 351.49C233.032 325.541 206.873 309.63 180.925 315.95C154.977 322.271 139.066 348.43 145.386 374.378Z" fill="url(#paint1_linear_32_2)"/>
<path d="M634.022 71.5176C474.871 110.283 375.224 257.397 409 416.5C394.963 338.433 445.013 273.073 522.963 254.086C604.012 234.344 685.767 283.953 705.543 365.142C725.282 446.179 807.071 495.928 888.108 476.189C966.058 457.202 1015.08 380.728 1001.04 302.65C1000.48 299.679 999.907 296.71 999.155 293.624C998.404 290.538 997.655 287.463 996.645 284.589C953.47 127.775 793.162 32.7547 634.022 71.5176Z" fill="url(#paint2_linear_32_2)"/>
<path d="M901.999 348.243C895.678 322.295 869.52 306.384 843.572 312.704C817.623 319.025 801.712 345.184 808.032 371.132C814.353 397.08 840.512 412.991 866.46 406.671C892.408 400.35 908.319 374.191 901.999 348.243Z" fill="url(#paint3_linear_32_2)"/>
<defs>
<linearGradient id="paint0_linear_32_2" x1="58.1743" y1="464.785" x2="579.5" y2="464.785" gradientUnits="userSpaceOnUse">
<stop stop-color="#D7E5FF"/>
<stop offset="0.458333" stop-color="#D6E4FF"/>
<stop offset="1" stop-color="#B2B4EA"/>
</linearGradient>
<linearGradient id="paint1_linear_32_2" x1="213" y1="374.378" x2="145.386" y2="374.378" gradientUnits="userSpaceOnUse">
<stop stop-color="#6496FA"/>
<stop offset="1" stop-color="#82ABFF"/>
</linearGradient>
<linearGradient id="paint2_linear_32_2" x1="842" y1="363.182" x2="394.33" y2="363.182" gradientUnits="userSpaceOnUse">
<stop stop-color="#5077C7"/>
<stop offset="1" stop-color="#6496FA"/>
</linearGradient>
<linearGradient id="paint3_linear_32_2" x1="808.032" y1="371.132" x2="929.5" y2="371.132" gradientUnits="userSpaceOnUse">
<stop stop-color="#BFE0FF"/>
<stop offset="0.386131" stop-color="#BBD1F8"/>
<stop offset="1" stop-color="#B2B4EA"/>
</linearGradient>
</defs>
</svg>
